<?xml version="1.0" encoding="UTF-8"?>
<!DOCTYPE svg PUBLIC "-//W3C//DTD SVG 1.1//EN" "http://www.w3.org/Graphics/SVG/1.1/DTD/svg11.dtd">
<!-- Creator: CorelDRAW X7 -->
<svg xmlns="http://www.w3.org/2000/svg" xml:space="preserve" width="225mm" height="42.0378mm" version="1.1" style="shape-rendering:geometricPrecision; text-rendering:geometricPrecision; image-rendering:optimizeQuality; fill-rule:evenodd; clip-rule:evenodd"
viewBox="0 0 22500 4204"
 xmlns:xlink="http://www.w3.org/1999/xlink">
 <defs>
  <style type="text/css">
   <![CDATA[
    .fil1 {fill:#002244;fill-rule:nonzero}
    .fil0 {fill:#666666;fill-rule:nonzero}
   ]]>
  </style>
 </defs>
 <g id="Layer_x0020_1">
  <metadata id="CorelCorpID_0Corel-Layer"/>
  <g id="_451624736">
   <path class="fil0" d="M15237 2490c-96,101 -217,152 -362,152 -146,0 -267,-51 -362,-152 -96,-100 -144,-225 -144,-373 0,-149 48,-273 144,-374 95,-101 216,-151 362,-151 145,0 266,50 362,151 95,101 143,225 143,374 0,148 -48,273 -143,373zm-1487 -425c-66,-32 -131,-61 -196,-86 -65,-25 -121,-56 -167,-92 -46,-35 -69,-79 -69,-131 0,-51 17,-91 52,-120 36,-30 82,-44 139,-44 49,0 99,13 148,40 50,26 82,48 98,63 15,16 28,29 37,39l152 -146 -17 -20c-12,-14 -31,-31 -56,-51 -25,-21 -54,-40 -87,-60 -32,-19 -74,-36 -124,-50 -50,-13 -102,-20 -155,-20 -120,0 -217,36 -291,109 -74,73 -111,161 -111,264 0,89 23,164 69,224 47,60 102,104 167,134 65,29 131,56 196,81 66,24 122,57 168,96 46,40 69,90 69,151 0,63 -20,112 -62,147 -42,35 -98,52 -170,52 -41,0 -82,-7 -122,-21 -39,-14 -72,-30 -96,-48 -25,-17 -48,-38 -71,-60 -22,-23 -36,-39 -43,-48 -6,-9 -11,-16 -13,-22l-166 149 18 27c11,17 31,37 60,61 29,25 62,49 100,74 37,24 86,46 146,63 60,18 123,26 191,26 133,0 240,-37 321,-112 81,-75 122,-172 122,-291 0,-93 -23,-171 -69,-235 -46,-63 -102,-111 -168,-143zm1606 1768l199 0 0 -70 -199 0 0 -325 255 0 0 -70 -327 0 0 774 331 0 0 -70 -259 0 0 -239zm-1796 -394l165 0 0 703 72 0 0 -703 163 0 0 -70 -400 0 0 70zm3237 -868c-22,16 -58,32 -108,47 -49,16 -101,24 -156,24 -145,0 -266,-51 -362,-152 -95,-100 -143,-225 -143,-373 0,-149 48,-273 143,-374 96,-101 217,-151 362,-151 55,0 108,9 159,26 52,18 86,32 102,42 16,10 28,19 36,25l115 -171 -47 -31c-32,-21 -83,-42 -152,-64 -69,-21 -141,-32 -217,-32 -201,0 -371,70 -510,210 -138,139 -208,313 -208,520 0,206 70,380 208,520 139,139 309,209 510,209 77,0 152,-11 225,-35 73,-23 120,-42 142,-56 22,-15 39,-26 51,-35l-117 -174 -33 25zm-6148 -189c0,75 -26,139 -79,191 -52,53 -117,79 -191,79 -75,0 -139,-26 -191,-79 -53,-52 -79,-116 -79,-191 0,-75 26,-139 79,-191 52,-53 116,-79 191,-79l270 0 0 270zm-386 -521c-32,-32 -48,-71 -48,-116 0,-45 16,-84 48,-116 32,-32 71,-48 116,-48 45,0 84,16 116,48 31,31 47,68 48,111l202 0c-1,-98 -37,-184 -107,-254 -72,-71 -159,-107 -259,-107 -101,0 -188,36 -259,107 -72,71 -108,159 -108,259 0,94 32,176 94,244l3 4 -4 3c-22,16 -42,33 -60,52 -92,92 -139,205 -139,334 0,130 47,242 139,334 92,92 204,139 334,139 129,0 242,-47 334,-139 11,-11 22,-23 34,-37l3 -4 4 4c11,13 22,26 34,37 90,91 201,137 329,139l0 -203c-73,-1 -136,-27 -186,-79 -53,-52 -80,-116 -80,-191l0 -270 266 0 0 -203 -738 0c-45,0 -84,-16 -116,-48zm1907 554l186 -497 189 497 -375 0zm-378 402l230 0 72 -197 529 0 74 197 234 0 -571 -1459 -568 1459zm337 1325l73 0 0 -774 -73 0 0 774zm8586 -181l0 12c0,7 -1,16 -3,23 -2,11 -5,21 -9,31 -3,10 -9,19 -16,26 -4,5 -9,8 -14,10 -8,4 -16,7 -24,10 -9,2 -18,4 -27,5 -9,1 -19,2 -28,2 -18,0 -36,-3 -54,-8 -12,-3 -27,-8 -36,-18 -7,-7 -13,-16 -16,-26 -4,-11 -7,-23 -9,-34 -1,-8 -3,-17 -2,-25 0,-4 0,-9 0,-13l0 -410c0,-19 2,-42 11,-59 6,-13 15,-25 27,-34 11,-8 23,-13 36,-16 14,-3 29,-5 43,-5 8,0 17,0 25,2 9,1 18,3 26,5 9,3 18,7 26,11 7,4 13,8 18,13 8,9 14,21 19,33 6,16 8,34 8,50l-1 415zm13 -560c-9,-8 -19,-15 -30,-20 -12,-5 -23,-9 -35,-12 -12,-3 -24,-6 -37,-7 -10,-1 -21,-2 -32,-2 -11,0 -23,1 -34,3 -11,1 -23,4 -35,7 -11,4 -23,8 -34,13 -11,5 -21,12 -30,20 -20,17 -35,39 -44,64 -9,25 -13,52 -13,79l0 408 0 17c0,13 2,25 4,38 2,15 7,31 13,46 6,18 17,34 30,48 18,19 42,30 66,38 25,7 51,11 77,11 26,0 52,-4 77,-11 25,-8 49,-19 68,-37 13,-14 23,-30 30,-48 6,-14 11,-28 14,-43 3,-12 5,-24 5,-37l0 -16 0 -414c0,-56 -17,-107 -60,-145zm366 -911c-95,101 -216,152 -362,152 -145,0 -266,-51 -362,-152 -95,-100 -143,-225 -143,-373 0,-149 48,-273 143,-374 96,-101 217,-151 362,-151 146,0 267,50 362,151 96,101 144,225 144,374 0,148 -48,273 -144,373zm-362 -1103c-201,0 -372,70 -512,211 -140,140 -210,313 -210,519 0,205 70,378 210,519 140,140 311,210 512,210 202,0 373,-70 512,-210 140,-141 210,-314 210,-519 0,-206 -70,-379 -210,-519 -139,-141 -310,-211 -512,-211zm1656 2358c-19,-15 -38,-29 -58,-42 -16,-12 -32,-23 -47,-35 -14,-11 -27,-23 -38,-36 -10,-12 -18,-26 -25,-40 -6,-16 -9,-32 -9,-48l0 -11c0,-8 2,-15 3,-22 2,-10 5,-20 9,-29 3,-9 9,-17 15,-25 20,-20 47,-26 74,-26 15,0 30,1 43,7 11,4 20,10 28,19 6,7 10,15 13,24 3,11 5,22 6,34 1,8 2,17 2,25 0,4 -1,8 -1,12l-1 27 73 0 0 -25c0,-5 0,-9 1,-14 0,-12 -1,-24 -2,-36 -2,-16 -5,-31 -9,-46 -6,-18 -15,-34 -27,-48 -32,-38 -78,-51 -126,-51 -48,0 -93,13 -127,50 -12,12 -23,27 -30,44 -5,14 -10,28 -12,42 -3,11 -5,23 -5,34l0 15c0,51 18,96 50,134 15,17 31,32 49,46 17,12 34,25 52,37 18,13 36,27 54,40 16,12 31,27 44,42 13,16 22,34 30,52 8,22 11,46 11,69 0,19 -2,38 -10,55 -6,13 -14,25 -26,34 -11,9 -23,16 -37,20 -14,4 -29,6 -44,6 -13,0 -26,-2 -39,-5 -12,-3 -24,-8 -34,-17 -12,-9 -20,-23 -26,-36 -9,-20 -12,-46 -12,-68l0 -25 -71 0 0 25c0,30 4,59 13,87 9,27 24,51 45,70 20,17 42,29 67,34 18,4 38,7 57,7 46,0 90,-12 126,-42 44,-37 63,-87 63,-145 0,-61 -19,-117 -57,-165 -17,-20 -35,-38 -55,-54zm112 -1302c0,-93 -23,-171 -69,-235 -46,-63 -102,-111 -168,-143 -66,-32 -131,-61 -196,-86 -65,-25 -121,-56 -167,-92 -46,-35 -69,-79 -69,-131 0,-51 17,-91 52,-120 36,-30 82,-44 139,-44 49,0 99,13 148,40 50,26 82,48 98,63 15,16 28,29 37,39l152 -146 -17 -20c-12,-14 -31,-31 -56,-51 -25,-21 -54,-40 -87,-60 -32,-19 -74,-36 -124,-50 -50,-13 -102,-20 -155,-20 -120,0 -217,36 -291,109 -74,73 -111,161 -111,264 0,89 23,164 69,224 47,60 102,104 167,134 65,29 131,56 196,81 66,24 122,57 168,96 46,40 69,90 69,151 0,63 -20,112 -62,147 -42,35 -98,52 -170,52 -41,0 -82,-7 -122,-21 -39,-14 -72,-30 -96,-48 -25,-17 -48,-38 -71,-60 -22,-23 -36,-39 -43,-48 -6,-9 -11,-16 -13,-22l-166 149 18 27c11,17 31,37 60,61 29,25 62,49 100,74 37,24 86,46 146,63 60,18 123,26 191,26 133,0 240,-37 321,-112 81,-75 122,-172 122,-291zm-11860 1513c0,6 0,12 0,18 -1,6 -1,11 -2,16 -2,11 -5,21 -9,31 -4,10 -10,19 -17,27 -19,20 -45,26 -73,26 -25,0 -51,-6 -69,-25 -7,-9 -14,-18 -18,-29 -3,-10 -6,-20 -8,-31l0 -1 0 -1c-1,-5 -1,-10 -1,-15l0 -22 0 -586 -73 0 0 584 0 17c0,13 1,25 3,38 2,15 7,31 13,46 7,18 17,34 30,48 33,35 76,49 123,49 48,0 93,-13 126,-49 12,-13 23,-29 30,-46 6,-15 10,-29 14,-44 2,-12 4,-24 4,-37l0 -15 0 -591 -73 0 0 592zm8796 -1471c-102,85 -226,127 -370,127l0 -991c146,0 269,42 371,127 101,84 152,207 152,369 0,161 -51,284 -153,368zm154 -878c-144,-127 -319,-191 -524,-191l-217 0 0 1401 217 0c205,0 380,-64 524,-191 144,-128 215,-297 215,-509 0,-212 -71,-382 -215,-510zm-2448 1210l217 0 0 -1401 -217 0 0 1401zm771 -402l185 -497 189 497 -374 0zm-379 402l231 0 72 -197 528 0 75 197 234 0 -572 -1459 -568 1459zm-245 584c-33,-28 -71,-42 -113,-42 -22,0 -42,4 -62,11 -19,8 -37,19 -52,32 -41,38 -56,89 -56,144l0 408c0,6 -1,11 -1,16 0,13 1,26 3,39 2,15 7,31 13,46 7,19 18,35 31,49 32,36 76,49 124,49 47,0 92,-13 125,-49 14,-14 24,-31 31,-49 6,-16 11,-32 14,-49 2,-13 3,-26 3,-39l0 -16 0 -25 -72 0 0 25 0 13c0,10 -1,19 -2,28 -2,12 -5,24 -10,35 -3,10 -9,19 -17,27 -19,21 -45,27 -72,27 -27,0 -52,-6 -70,-26 -8,-9 -14,-18 -18,-28 -3,-10 -6,-21 -8,-32 -1,-9 -2,-17 -2,-26l0 -13 0 -410c0,-18 2,-37 8,-54 5,-13 12,-25 22,-35 9,-8 20,-15 31,-19 12,-5 24,-7 37,-7 12,0 24,3 35,7 12,5 23,12 33,22 10,10 18,24 24,38 7,19 9,39 9,58l0 26 73 0 0 -26c0,-30 -4,-59 -15,-87 -9,-27 -24,-50 -46,-68zm1401 38l165 0 0 703 72 0 0 -703 162 0 0 -70 -399 0 0 70zm-13064 -884c-42,38 -108,57 -197,57l-165 0 0 -408 165 0c89,0 155,19 197,57 43,38 65,87 65,146 0,60 -22,109 -65,148zm-362 -934l134 0c89,0 154,17 197,52 43,34 65,81 65,139 0,125 -88,188 -262,188l-134 0 0 -379zm454 472c106,-70 158,-168 158,-292 0,-118 -42,-211 -128,-280 -85,-70 -202,-105 -350,-105l-351 0 0 1401 382 0c143,0 259,-38 347,-115 88,-77 131,-172 131,-285 0,-144 -63,-252 -189,-324zm685 322l185 -497 190 497 -375 0zm761 402l-572 -1459 -568 1459 231 0 72 -197 529 0 74 197 234 0zm-1887 1035l53 -268 50 268 -103 0zm23 -484l-156 774 73 0 47 -218 132 0 45 218 73 0 -155 -774 -59 0zm3767 -1946l-586 681 0 -687 -217 0 0 1401 217 0 0 -681 586 681 251 0 -600 -698 600 -697 -251 0zm-1981 2327c-19,10 -52,12 -73,12l-68 0 0 -320 68 0c23,0 49,2 70,12 15,7 28,17 37,31 11,16 19,35 24,54 6,20 9,41 9,62 0,22 -3,43 -9,63 -5,19 -13,38 -24,55 -8,13 -20,24 -34,31zm57 50c15,-12 28,-26 38,-43 15,-22 25,-47 33,-73 7,-27 11,-55 11,-83 0,-28 -4,-55 -11,-82 -8,-26 -18,-51 -33,-74 -16,-25 -39,-44 -67,-57 -31,-15 -66,-19 -101,-19l-140 0 0 774 72 0 0 -309 68 0c9,0 17,0 26,-1 1,0 3,0 4,0l136 309 77 0 -142 -325c10,-4 20,-10 29,-17zm1743 162l0 12c0,7 -1,16 -2,23 -2,11 -5,21 -9,31 -4,10 -10,19 -17,26 -4,5 -9,8 -13,10 -8,4 -16,7 -24,10 -9,2 -19,4 -28,5 -9,1 -18,2 -28,2 -18,0 -36,-3 -54,-8 -12,-3 -26,-8 -35,-18 -8,-7 -13,-16 -17,-26 -4,-11 -7,-23 -9,-34 -1,-8 -2,-17 -2,-25 0,-4 1,-9 1,-13l0 -410c0,-19 2,-42 11,-59 6,-13 14,-25 26,-34 11,-8 23,-13 37,-16 14,-3 28,-5 42,-5 9,0 17,0 25,2 9,1 19,3 28,6 9,2 17,6 26,10 6,3 12,7 16,12 9,10 15,21 20,33 5,16 7,35 7,51l-1 415zm84 195l-53 -60c10,-12 18,-25 24,-40 6,-14 10,-28 14,-43 2,-12 4,-24 4,-37l0 -16 0 -414c0,-56 -16,-107 -59,-145 -9,-8 -20,-15 -31,-20 -11,-5 -23,-9 -35,-12 -12,-3 -24,-6 -36,-7 -11,-1 -22,-2 -33,-2 -11,0 -22,1 -33,3 -12,1 -24,4 -35,7 -12,3 -24,8 -35,13 -11,5 -21,12 -30,20 -20,17 -34,39 -43,64 -10,25 -13,52 -13,79l0 408 0 17c0,13 1,25 3,38 3,15 7,31 13,46 7,18 17,34 31,48 17,19 41,30 66,38 25,7 50,11 76,11 19,0 38,-2 56,-5 12,-3 24,-6 36,-10l57 67 56 -48zm-1630 -1339l661 0 0 -205 -445 0 0 -415 416 0 0 -205 -416 0 0 -371 445 0 0 -205 -661 0 0 1401zm8257 -700c0,-206 -70,-379 -210,-519 -140,-141 -311,-211 -512,-211 -202,0 -373,70 -512,211 -140,140 -210,313 -210,519 0,205 70,378 210,519 139,140 310,210 512,210 201,0 372,-70 512,-210 140,-141 210,-314 210,-519z"/>
   <path class="fil1" d="M2831 3296l0 826 1182 0 -737 -1267 -445 441zm1328 51l0 -1381 -505 506 505 875zm-4159 -1908l894 0c215,0 376,9 481,27 106,18 200,55 283,112 84,57 153,132 208,227 56,94 84,200 84,317 0,127 -34,244 -102,351 -69,106 -162,185 -279,239 165,48 292,130 381,245 89,117 133,253 133,410 0,123 -28,243 -86,360 -57,117 -136,210 -235,280 -78,55 -171,93 -279,115l800 0 0 -4122 -2283 0 0 1439zm2831 1119l1165 -1144 163 0 0 -1414 -1328 0 0 2558zm-1373 576c-40,-57 -97,-99 -172,-125 -74,-26 -237,-38 -486,-38l-442 0 0 725 507 0c197,0 323,-5 376,-16 81,-15 148,-51 199,-108 51,-58 77,-135 77,-231 0,-81 -20,-150 -59,-207zm-343 -625c-52,7 -185,10 -398,10l-359 0 0 -628 314 0c258,0 414,3 469,10 91,10 160,42 207,94 46,53 68,121 68,205 0,88 -26,159 -80,213 -54,53 -128,86 -221,96z"/>
  </g>
 </g>
</svg>
